<svg width="116" height="138" viewBox="0 0 116 138" fill="none" xmlns="http://www.w3.org/2000/svg">
    <path
        d="M105.934 54.637C101.347 52.8319 96.2854 52.7826 91.8637 54.5C89 55.6123 84.5 59.5 82.3558 63.7947L83.5 70.5C84.7959 67.207 90.1553 59.4138 93.5944 58.078C97.0335 56.7422 100.97 56.7805 104.538 58.1845C107.086 59.1873 109.162 61.0835 110.31 63.4558C111.457 65.8282 111.582 68.4824 110.656 70.8346C109.731 73.1867 107.831 75.0442 105.374 75.9983C102.918 76.9524 100.106 76.9251 97.5576 75.9222C96.0286 75.3205 94.7828 74.1828 94.0943 72.7594C93.4058 71.336 93.331 69.7435 93.8864 68.3322C94.4418 66.9209 95.5818 65.8064 97.0557 65.2339C98.5296 64.6615 100.217 64.6779 101.746 65.2796C102.255 65.4802 102.671 65.8594 102.9 66.3339C103.13 66.8083 103.155 67.3392 102.969 67.8096C102.784 68.28 102.404 68.6515 101.913 68.8424C101.422 69.0332 100.859 69.0277 100.35 68.8271C100.35 68.8271 100.35 68.8271 98.4279 68.0709C96.5061 67.3147 95.1101 70.8622 97.0319 71.6184C98.9537 72.3747 98.9537 72.3747 98.9537 72.3747C100.483 72.9764 102.17 72.9928 103.644 72.4203C105.118 71.8479 106.258 70.7334 106.813 69.3221C107.368 67.9108 107.294 66.3183 106.605 64.8949C105.917 63.4714 104.671 62.3338 103.142 61.732C100.593 60.7292 97.7815 60.7018 95.325 61.656C92.8685 62.6101 90.9685 64.4675 90.0429 66.8197C89.1172 69.1719 89.2419 71.8261 90.3894 74.1984C91.5369 76.5708 93.6132 78.4669 96.1616 79.4698C99.7294 80.8737 103.666 80.9121 107.105 79.5763C110.544 78.2405 113.204 75.6401 114.5 72.3471C115.796 69.054 115.621 65.3381 114.015 62.0168C112.408 58.6956 109.501 56.0409 105.934 54.637Z"
        fill="white" />
    <path
        d="M4.23926 76.3101C4.8278 75.0594 5.5083 73.7168 6.28076 72.2822C7.05322 70.8109 7.88086 69.3211 8.76367 67.813C9.64648 66.2681 10.5845 64.7415 11.5776 63.2334C12.5708 61.7253 13.6007 60.3091 14.6675 58.9849C15.7342 57.6974 16.8009 56.7778 17.8677 56.2261C18.9712 55.6375 20.0011 55.3433 20.9575 55.3433C21.9139 55.3433 22.7415 55.5456 23.4404 55.9502C24.1761 56.318 24.7646 56.833 25.2061 57.4951C25.6842 58.1572 26.0337 58.9297 26.2544 59.8125C26.5119 60.6953 26.6406 61.6517 26.6406 62.6816C26.6406 63.5277 26.5487 64.668 26.3647 66.1025C26.2176 67.5003 26.144 68.9717 26.144 70.5166C26.144 71.3994 26.1808 72.2822 26.2544 73.165C26.3647 74.0111 26.5303 74.7835 26.751 75.4824C27.0085 76.1445 27.3763 76.6963 27.8545 77.1377C28.3327 77.5423 28.958 77.7446 29.7305 77.7446C30.6133 77.7446 31.4961 77.5055 32.3789 77.0273C33.2617 76.5124 34.1261 75.8503 34.9722 75.041C35.8182 74.195 36.6274 73.2754 37.3999 72.2822C38.1724 71.2523 38.8713 70.2407 39.4966 69.2476C40.1219 68.2176 40.6737 67.2428 41.1519 66.3232C41.63 65.3669 42.0163 64.576 42.3105 63.9507C42.6784 63.1047 43.3221 62.6816 44.2417 62.6816C44.867 62.6816 45.3636 62.9023 45.7314 63.3438C46.0993 63.7852 46.2832 64.2633 46.2832 64.7783C46.2832 65.0726 46.228 65.3485 46.1177 65.606C45.9705 65.9002 45.6763 66.5072 45.2349 67.4268C44.8302 68.3464 44.2601 69.4131 43.5244 70.627C42.8255 71.8408 41.9979 73.1099 41.0415 74.4341C40.0851 75.7583 39.0184 76.9906 37.8413 78.1309C36.701 79.2344 35.4504 80.154 34.0894 80.8896C32.7651 81.5885 31.3674 81.938 29.896 81.938C28.2039 81.938 26.8429 81.5885 25.813 80.8896C24.783 80.154 23.9738 79.2344 23.3853 78.1309C22.8335 77.0273 22.4473 75.7951 22.2266 74.4341C22.0426 73.0731 21.9507 71.7489 21.9507 70.4614C21.9507 69.7993 21.9691 69.1004 22.0059 68.3647C22.0794 67.5923 22.153 66.8382 22.2266 66.1025C22.3001 65.3669 22.3553 64.6864 22.3921 64.061C22.4657 63.3989 22.5024 62.8472 22.5024 62.4058C22.5024 61.2655 22.3369 60.493 22.0059 60.0884C21.7116 59.6838 21.3621 59.4814 20.9575 59.4814C20.369 59.4814 19.6885 59.8309 18.916 60.5298C18.1803 61.1919 17.3895 62.0747 16.5435 63.1782C15.7342 64.2817 14.9066 65.5324 14.0605 66.9302C13.2513 68.2912 12.4604 69.6522 11.688 71.0132C10.9155 72.3742 10.2166 73.68 9.59131 74.9307C8.96598 76.1445 8.45101 77.1561 8.04639 77.9653C7.27393 79.5103 6.48307 80.5402 5.67383 81.0552C4.90137 81.6069 4.20247 81.8828 3.57715 81.8828C2.43685 81.8828 1.55404 81.4414 0.928711 80.5586C0.340169 79.639 0.0458984 78.5355 0.0458984 77.248V73.772C0.0458984 66.8198 0.0458984 60.1987 0.0458984 53.9087C0.0826823 47.5819 0.174642 41.7148 0.321777 36.3076C0.505697 30.8636 0.781576 25.953 1.14941 21.5757C1.55404 17.1616 2.14258 13.4097 2.91504 10.3198C3.6875 7.1932 4.66227 4.78385 5.83936 3.0918C7.05322 1.39974 8.56136 0.553711 10.3638 0.553711C11.9087 0.553711 13.2145 0.976725 14.2812 1.82275C15.348 2.66878 16.2124 3.82747 16.8745 5.29883C17.5366 6.7334 18.0148 8.42546 18.3091 10.375C18.6034 12.2878 18.7505 14.3109 18.7505 16.4443C18.7505 20.7848 18.3459 25.0518 17.5366 29.2451C16.7642 33.4017 15.7158 37.4663 14.3916 41.439C13.0674 45.4116 11.5225 49.2923 9.75684 53.0811C7.99121 56.833 6.13363 60.493 4.18408 64.061C4.18408 64.7231 4.18408 65.514 4.18408 66.4336C4.18408 67.3532 4.18408 68.2728 4.18408 69.1924C4.18408 70.112 4.18408 70.9764 4.18408 71.7856C4.18408 72.5949 4.18408 73.2386 4.18408 73.7168L4.23926 76.3101ZM4.23926 55.9502C5.78418 52.5661 7.18197 49.2739 8.43262 46.0737C9.72005 42.8368 10.8052 39.6182 11.688 36.418C12.6076 33.2178 13.3249 29.9808 13.8398 26.707C14.3548 23.3965 14.6123 19.9572 14.6123 16.3892C14.6123 15.8006 14.5755 14.8626 14.502 13.5752C14.4652 12.2878 14.2996 10.9819 14.0054 9.65771C13.7479 8.3335 13.3249 7.1748 12.7363 6.18164C12.1846 5.18848 11.3937 4.69189 10.3638 4.69189C9.55452 4.69189 8.85563 5.24365 8.26709 6.34717C7.67855 7.4139 7.16357 8.88525 6.72217 10.7612C6.28076 12.6004 5.91292 14.7523 5.61865 17.2168C5.32438 19.6813 5.08529 22.293 4.90137 25.0518C4.71745 27.8105 4.57031 30.6429 4.45996 33.5488C4.38639 36.4548 4.33122 39.2871 4.29443 42.0459C4.25765 44.7679 4.23926 47.3244 4.23926 49.7153C4.23926 52.1063 4.23926 54.1846 4.23926 55.9502Z"
        fill="white" />
    <path
        d="M70.6709 65.606C70.6709 68.9901 70.064 71.8776 68.8501 74.2686C67.6362 76.6595 66.1465 78.4803 64.3809 79.731H64.6016C66.7718 79.731 68.7397 79.2528 70.5054 78.2964C72.3078 77.3032 73.9263 76.0526 75.3608 74.5444C76.7954 72.9995 78.0828 71.2891 79.2231 69.4131C80.3634 67.5371 81.375 65.7163 82.2578 63.9507C82.4417 63.5461 82.6992 63.2334 83.0303 63.0127C83.3981 62.792 83.7843 62.6816 84.189 62.6816C84.8143 62.6816 85.3109 62.9023 85.6787 63.3438C86.0465 63.7852 86.2305 64.2633 86.2305 64.7783C86.2305 65.0726 86.1753 65.3485 86.0649 65.606C85.1086 67.7394 83.9683 69.8913 82.644 72.0615C81.3198 74.195 79.7749 76.1261 78.0093 77.855C76.2437 79.5838 74.2573 80.9816 72.0503 82.0483C69.8433 83.1519 67.3971 83.7036 64.7119 83.7036C62.7624 83.7036 60.868 83.391 59.0288 82.7656C57.1896 82.1771 55.5711 81.2391 54.1733 79.9517C53.6584 79.547 53.217 79.124 52.8491 78.6826C52.4813 78.2044 52.187 77.763 51.9663 77.3584C51.8927 77.2848 51.856 77.2113 51.856 77.1377C51.6353 76.8066 51.5249 76.4572 51.5249 76.0894C51.5249 75.6112 51.6904 75.1698 52.0215 74.7651C52.0583 74.6916 52.0951 74.6548 52.1318 74.6548C52.1686 74.618 52.2054 74.5812 52.2422 74.5444C52.61 74.2134 53.0146 74.0295 53.4561 73.9927H53.6216C53.8055 73.9927 53.9342 74.0111 54.0078 74.0479C54.0446 74.0479 54.063 74.0662 54.063 74.103C54.0998 74.103 54.1366 74.103 54.1733 74.103C54.2837 74.103 54.4124 74.1398 54.5596 74.2134C54.5964 74.2502 54.6331 74.2686 54.6699 74.2686C55.001 74.4893 55.2769 74.7651 55.4976 75.0962C55.755 75.5376 56.0493 75.9422 56.3804 76.3101C56.6746 76.6043 57.0241 76.8802 57.4287 77.1377C57.8333 77.3584 58.2931 77.4688 58.8081 77.4688C59.7277 77.4688 60.6473 77.1929 61.5669 76.6411C62.4865 76.0894 63.3141 75.2985 64.0498 74.2686C64.7855 73.2386 65.374 71.988 65.8154 70.5166C66.2936 69.0452 66.5327 67.4084 66.5327 65.606C66.5327 64.2817 66.3856 63.1598 66.0913 62.2402C65.8338 61.2839 65.4844 60.5114 65.043 59.9229C64.6383 59.3343 64.1969 58.9113 63.7188 58.6538C63.2406 58.3595 62.7808 58.2124 62.3394 58.2124C61.3462 58.2124 60.3346 58.7274 59.3047 59.7573C58.3115 60.7873 57.3184 62.0931 56.3252 63.6748C55.332 65.2565 54.3389 67.0037 53.3457 68.9165C52.3893 70.8293 51.4146 72.6868 50.4214 74.4893C50.3478 80.4482 50.2375 86.1313 50.0903 91.5386C49.98 96.9458 49.7593 101.967 49.4282 106.602C49.134 111.236 48.7109 115.43 48.1592 119.182C47.6074 122.934 46.8534 126.134 45.897 128.782C44.9406 131.467 43.7635 133.527 42.3657 134.962C40.9679 136.396 39.2575 137.114 37.2344 137.114C36.609 137.114 35.8918 136.985 35.0825 136.728C34.2733 136.47 33.5192 135.937 32.8203 135.127C32.1214 134.355 31.5329 133.233 31.0547 131.762C30.5765 130.29 30.3374 128.322 30.3374 125.858C30.3374 122.731 30.7236 119.108 31.4961 114.988C32.2686 110.868 33.3721 106.491 34.8066 101.856C36.2044 97.2585 37.8781 92.5317 39.8276 87.6763C41.7772 82.8208 43.929 78.0941 46.2832 73.4961C46.2832 72.2087 46.2832 70.9396 46.2832 69.689C46.32 68.4383 46.3384 67.2244 46.3384 66.0474C45.8602 66.5991 45.29 66.875 44.6279 66.875C44.0026 66.875 43.506 66.6543 43.1382 66.2129C42.7703 65.7715 42.5864 65.2933 42.5864 64.7783C42.5864 64.5208 42.6416 64.245 42.752 63.9507C43.6348 61.9276 44.3153 60.0148 44.7935 58.2124C45.2716 56.3732 45.6211 54.7731 45.8418 53.4121C46.0993 52.0143 46.2464 50.9108 46.2832 50.1016C46.32 49.2923 46.3384 48.8693 46.3384 48.8325C46.3384 48.2808 46.5407 47.8026 46.9453 47.3979C47.3499 46.9933 47.8465 46.791 48.4351 46.791C48.9868 46.791 49.465 46.9933 49.8696 47.3979C50.2743 47.7658 50.4766 48.244 50.4766 48.8325V65.7715C51.3226 64.3369 52.1686 62.9207 53.0146 61.5229C53.8607 60.1252 54.7435 58.8745 55.6631 57.771C56.6195 56.6675 57.631 55.7847 58.6978 55.1226C59.8013 54.4237 61.0151 54.0742 62.3394 54.0742C63.59 54.0742 64.7303 54.3685 65.7603 54.957C66.7902 55.5456 67.673 56.3548 68.4087 57.3848C69.1444 58.4147 69.6961 59.647 70.064 61.0815C70.4686 62.4793 70.6709 63.9875 70.6709 65.606ZM46.1729 83.3174C44.3704 87.3636 42.7336 91.4282 41.2622 95.5112C39.8276 99.5942 38.6138 103.53 37.6206 107.319C36.5907 111.108 35.7998 114.657 35.248 117.968C34.6963 121.278 34.4204 124.184 34.4204 126.686C34.4204 127.311 34.4572 127.991 34.5308 128.727C34.6043 129.463 34.7515 130.143 34.9722 130.769C35.1929 131.394 35.5055 131.909 35.9102 132.313C36.3148 132.755 36.8481 132.976 37.5103 132.976C38.7241 132.976 39.7725 132.203 40.6553 130.658C41.5381 129.15 42.2738 127.09 42.8623 124.479C43.4876 121.904 44.0026 118.924 44.4072 115.54C44.8118 112.193 45.1245 108.68 45.3452 105.001C45.6027 101.323 45.7866 97.6079 45.897 93.856C46.0073 90.1408 46.0993 86.6279 46.1729 83.3174Z"
        fill="white" />
</svg>